<svg xmlns="http://www.w3.org/2000/svg" viewBox="0 0 1080 1080"><defs><style>.cls-1{fill:#9494ff;}.cls-2{fill:#fff;}.cls-3{fill:#122940;}.cls-4{fill:#b2bac2;}</style></defs><g id="Layer_2" data-name="Layer 2"><g id="Layer_1-2" data-name="Layer 1"><path class="cls-1" d="M1078.48,499.62h0A540,540,0,0,0,540.57,0q-20.34,0-41,1.54A540,540,0,0,0,0,539.41q0,20.34,1.55,41A538.51,538.51,0,0,0,148.72,912.1h0a539.67,539.67,0,0,0,291.56,158.67c9.75,1.83,19.52,3.35,29.3,4.64,3.15.42,6.49.85,10,1.22h0c5.39.64,10.72,1.14,16,1.54h-.14q21.91,1.82,44.27,1.83,20.22,0,40.69-1.52h0a538.43,538.43,0,0,0,195.46-52.6l.16-.08h0l1.19-.57.22-.11c10.65-5.23,21.15-10.78,31.47-16.77l0,0c.76-.45,2-1.12,3.52-2.08l.22-.13a541.69,541.69,0,0,0,233.73-278.34q7.29-19.63,13-39.86l0-.09A536,536,0,0,0,1080,540.39Q1080,520.16,1078.48,499.62Zm-56.34,146.6q-3.21,14.63-7.31,28.94l0,.09q-5.19,18.45-11.85,36.36a495.48,495.48,0,0,1-206,249.9q-4.08,2.49-8.23,4.91l-.31.18-.29.18c-.4.25-1.25.74-2.5,1.47q-12.6,7.32-25.82,13.86l-3,1.46-.21.11h0l-1,.51-.2.1a492.09,492.09,0,0,1-178.46,48q-18.75,1.4-37.24,1.4-20.41,0-40.43-1.68h-.15c-4.73-.36-9.4-.8-14-1.36H485l-.21,0c-1.81-.19-3.7-.42-5.66-.67l-3.48-.46h0c-9.09-1.19-18-2.58-26.79-4.24h-.05q-6-1.12-12-2.4A493.71,493.71,0,0,1,182.29,880.14v0a488.12,488.12,0,0,1-53.09-66.36c-.37-.54-.73-1.09-1.09-1.64l0,0A490.72,490.72,0,0,1,47.78,576.9Q46.36,558,46.37,539.41C46.37,411.49,95.69,293.52,177.5,205A491.64,491.64,0,0,1,503.08,47.77q18.88-1.41,37.49-1.41c127.91,0,245.89,49.33,334.47,131.13a491.83,491.83,0,0,1,157.21,325.58q1.39,18.78,1.39,37.32A490.12,490.12,0,0,1,1022.14,646.22Z"/><path class="cls-2" d="M1033.64,540.39a490.12,490.12,0,0,1-11.5,105.83q-3.21,14.63-7.31,28.94l0,.09q-5.19,18.45-11.85,36.36a495.48,495.48,0,0,1-206,249.9q-4.08,2.49-8.23,4.91l-.31.18-.29.18c-.4.25-1.25.74-2.5,1.47q-12.6,7.32-25.82,13.86l-3,1.46-.21.11h0l-1,.51-.2.1a492.09,492.09,0,0,1-178.46,48q-18.75,1.4-37.24,1.4-20.41,0-40.43-1.68h-.15c-4.73-.36-9.4-.8-14-1.36H485l-.21,0c-1.81-.19-3.7-.42-5.66-.67l-3.48-.46h0c-9.09-1.19-18-2.58-26.79-4.24h-.05q-6-1.12-12-2.4A493.71,493.71,0,0,1,182.29,880.14v0a488.12,488.12,0,0,1-53.09-66.36c-.37-.54-.73-1.09-1.09-1.64l0,0A490.72,490.72,0,0,1,47.78,576.9Q46.36,558,46.37,539.41C46.37,411.49,95.69,293.52,177.5,205A491.64,491.64,0,0,1,503.08,47.77q18.88-1.41,37.49-1.41c127.91,0,245.89,49.33,334.47,131.13a491.83,491.83,0,0,1,157.21,325.58Q1033.65,521.85,1033.64,540.39Z"/><path class="cls-3" d="M683.22,324.2l-15.41,78.28c-3.75,19.2-8,47.55-8,47.55l-.48.12s-4.74-25.17-8.81-42.89l-17.12-73.74L594,340.93,578.65,421c-3.66,19.64-7.89,45.73-7.89,45.73l-.47.12s-4.46-26.49-8.53-44l-17.17-72.7-42.54,8,48,171.93,41.78-7.85,17-90.23c3.08-16,5.39-35.93,5.39-35.93l.52-.12s3.3,19.12,6.81,33.66L641,513.05l41.78-7.84,43.74-189.14Z"/><path class="cls-3" d="M297.53,395.74l-.8,114.53-.48.08s-5-10.72-12.46-23.22l-46.65-80.08-42.79,8-.91,181.13,41.31-7.77.63-115.24.48-.08s7.13,15.1,13.78,26.25l45.46,77.76,42.78-8,1-181.13Z"/><polygon class="cls-3" points="404.17 518.95 404.4 479.68 477.03 466.05 477.14 431.63 404.77 445.22 404.89 412.04 488.97 396.26 489.21 359.77 362.34 383.55 361.38 564.68 490.96 540.38 491.2 502.62 404.17 518.95"/><path class="cls-3" d="M870.67,412.47c-5.42-28.84-28.81-37.37-60.31-42.1-29.64-4.3-39.64-4.94-41.59-15.46-2.07-12.26,10.32-19.16,21.31-21.19,17.37-3.27,28.8,2.43,31.12,16.18l41.58-7.81c-5.94-40.91-43.34-47.57-77.32-41.19-38.87,7.29-63.42,31.62-56.64,67.84,5.34,28.36,27.25,35.89,60.58,41,25.58,4.07,37,6.77,38.89,17,2.66,14.19-10.16,21.4-24.58,24.1-19.32,3.63-34.58-.83-37.49-19l-42.78,8c6.77,44.26,47.28,52.38,85.41,45.21,39.59-7.45,69.23-33,61.82-72.58"/><polygon class="cls-3" points="553.9 576.11 974.91 498.31 980.65 532.55 573.78 608.86 456.71 698.42 456.71 631.01 117.14 693.43 112.38 658.2 490.97 587.87 490.97 625.61 553.9 576.11"/><path class="cls-4" d="M436.75,1022.79A493.71,493.71,0,0,1,182.29,880.14v0a488.12,488.12,0,0,1-53.09-66.36L388.4,765.11Z"/><path class="cls-4" d="M759.8,982.11l-3,1.46-.21.11h0l-1,.51-.2.1a492.09,492.09,0,0,1-178.46,48q-18.75,1.4-37.24,1.4-20.41,0-40.43-1.68h-.15c-4.73-.36-9.4-.8-14-1.36H485l-.21,0c-1.81-.19-3.7-.42-5.66-.67L428,757.67l279.8-52.47Z"/><path class="cls-4" d="M1022.14,646.22q-3.21,14.63-7.31,28.94l0,.09q-5.19,18.45-11.85,36.36a495.48,495.48,0,0,1-206,249.9L747.48,697.76Z"/></g></g></svg>