<svg xmlns="http://www.w3.org/2000/svg" viewBox="0 0 1080 1080"><defs><style>.cls-1{fill:#9494ff;}.cls-2{fill:#112840;}.cls-3{fill:#6970c2;}.cls-4{fill:#fff;}.cls-5{fill:#b2bac2;}</style></defs><g id="Layer_2" data-name="Layer 2"><g id="Layer_1-2" data-name="Layer 1"><path class="cls-1" d="M0,540C0,241.77,241.77,0,540,0s540,241.77,540,540-241.77,540-540,540S0,838.23,0,540"/><path class="cls-2" d="M943,706.82,834.46,192.88a11.29,11.29,0,0,0-13.33-8.72L258.36,303a11.18,11.18,0,0,0-8.64,13.25l5.92,28.1-37.44,7.91a11.24,11.24,0,0,0-8.67,13.31l5.93,28.1-37.34,7.88a11.25,11.25,0,0,0-8.67,13.32l92,435.66a11.41,11.41,0,0,0,.33,1.18,60.55,60.55,0,0,0,71.51,45.57l.3-.06L896.34,778.37A60.46,60.46,0,0,0,943,706.82Zm-590.2,152a38,38,0,0,1-23.9,16.49l-.24.05-.1,0a38.27,38.27,0,0,1-45-28.89c0-.21-.05-.41-.09-.63L193.76,421.18l26.34-5.56,89.65,424.65a11.24,11.24,0,0,0,11,8.92,11.77,11.77,0,0,0,2.34-.24,11.24,11.24,0,0,0,8.66-13.32L239.77,400h0l-5.93-28.08,26.45-5.59,97.84,463.76A37.94,37.94,0,0,1,352.76,858.8Zm539-102.33L374.62,865.63a60.33,60.33,0,0,0,5.41-40.2l-100-474c0-.24-.07-.49-.13-.74s-.12-.48-.18-.73l-5.79-27.41L814.86,208.36l106.2,503.07A38.06,38.06,0,0,1,891.72,756.47Z"/><path class="cls-3" d="M352.76,858.8a38,38,0,0,1-23.9,16.49l-.24.05-.1,0a38.27,38.27,0,0,1-45-28.89c0-.21-.05-.41-.09-.63L193.76,421.18l26.34-5.56,89.65,424.65a11.24,11.24,0,0,0,11,8.92,11.77,11.77,0,0,0,2.34-.24,11.24,11.24,0,0,0,8.66-13.32L239.77,400h0l-5.93-28.08,26.45-5.59,97.84,463.76A37.94,37.94,0,0,1,352.76,858.8Z"/><path class="cls-4" d="M921.06,711.43,814.86,208.36,273.93,322.54,279.72,350c.06.25.13.48.18.73s.09.5.13.74l100,474a60.33,60.33,0,0,1-5.41,40.2l517.1-109.16A38.06,38.06,0,0,0,921.06,711.43ZM690.27,389.23l25-5.26a.06.06,0,0,1,.07,0c2,10.62,11,13,22.3,10.65,8.45-1.78,15.89-6.19,14.14-14.51-1.27-6-8-7.43-23.1-9.49-19.7-2.57-32.69-6.71-36.19-23.33-4.48-21.2,9.63-35.85,32.41-40.66,19.9-4.2,42-.79,46,23.15,0,0,0,.05,0,.06L746.61,335a.08.08,0,0,1-.07-.05c-1.57-8-8.38-11.19-18.52-9.05-6.45,1.35-13.64,5.57-12.27,12.77,1.3,6.15,7.19,6.4,24.7,8.55,18.1,2.28,31.7,6.8,35.72,22.6,4.45,17.51-6,35.34-23,41.45-24.91,9-57.47,8.73-62.92-22C690.23,389.27,690.25,389.23,690.27,389.23ZM556.39,344.17l24.82-5.24a.08.08,0,0,1,.07.05l11.06,42.49c2.6,10.23,5.58,25.76,5.58,25.76l.29-.06s2.14-15.41,4-27l8-47.28a.07.07,0,0,1,0-.05l23-4.84a.05.05,0,0,1,.07,0l11,43.11c2.64,10.36,5.76,25.12,5.76,25.12l.29-.06s2.14-16.76,4.09-28.1l8-46.25a0,0,0,0,1,0,0l25.24-5.32s.07,0,.06.05L664.64,428.27a.06.06,0,0,1,0,.05l-24.41,5.15s0,0-.06,0l-12.55-48.77c-2.24-8.5-4.46-19.71-4.46-19.71l-.28.07s-1.11,11.75-2.7,21.21l-8.79,53.29a0,0,0,0,1,0,.05l-24.41,5.15a.06.06,0,0,1-.07,0L556.35,344.25A.06.06,0,0,1,556.39,344.17ZM477,360.93l74.23-15.67a.06.06,0,0,1,.07.06l.34,21.35a.07.07,0,0,1,0,.06l-49.19,10.38a.07.07,0,0,0,0,.06l.38,19.41s0,.05.06.05l42.27-8.92s.06,0,.06.05l.39,20.15a.07.07,0,0,1,0,.06l-42.46,9a.07.07,0,0,0,0,.06l.39,23s0,.05.07.05l50.86-10.74a.05.05,0,0,1,.07.05l.35,22.12a.05.05,0,0,1,0,0l-75.81,16s-.07,0-.07,0L477,361A.06.06,0,0,1,477,360.93Zm-98.43,20.78,25-5.27a0,0,0,0,1,.06,0l28.5,46.47c4.53,7.27,7.64,13.49,7.64,13.49l.29-.06L439,369a.05.05,0,0,1,0-.05l24.09-5.09a.06.06,0,0,1,.07.06L465,470.4a.07.07,0,0,1,0,.06l-25,5.26a0,0,0,0,1-.06,0l-27.77-45.13c-4.06-6.48-8.47-15.27-8.47-15.27l-.28.06,1.15,67.79s0,.06,0,.06l-24.1,5.09s-.07,0-.07-.05l-1.85-106.48A.06.06,0,0,1,378.58,381.71ZM353.57,524l145-31.31L556.86,480l.53,20.33,33.17-27.56,89.29-19.05,145.07-30.95,3.88,18.3-145,31.31-82.09,17.74L540,540l-1-36.26-36.49,7.81-145,31.09ZM560.7,787.29l-145,30.61s-.07,0-.07,0L368.85,596.41a.06.06,0,0,1,0-.07l145-30.61a.07.07,0,0,1,.06,0l46.74,221.45S560.72,787.29,560.7,787.29ZM724,752.83l-145,30.61s-.05,0-.06-.05L532.14,562s0-.07,0-.07l145-30.61a0,0,0,0,1,.06,0L724,752.76A.08.08,0,0,1,724,752.83Zm163.28-34.47L742.22,749a0,0,0,0,1-.06,0L695.41,527.48a.06.06,0,0,1,0-.07l145-30.61s.06,0,.06,0L887.29,718.3A0,0,0,0,1,887.25,718.36Z"/><path class="cls-2" d="M465,470.4a.07.07,0,0,1,0,.06l-25,5.26a0,0,0,0,1-.06,0l-27.77-45.13c-4.06-6.48-8.47-15.27-8.47-15.27l-.28.06,1.15,67.79s0,.06,0,.06l-24.1,5.09s-.07,0-.07-.05l-1.85-106.48a.06.06,0,0,1,.05-.06l25-5.27a0,0,0,0,1,.06,0l28.5,46.47c4.53,7.27,7.64,13.49,7.64,13.49l.29-.06L439,369a.05.05,0,0,1,0-.05l24.09-5.09a.06.06,0,0,1,.07.06Z"/><path class="cls-2" d="M554.74,451.47a.05.05,0,0,1,0,0l-75.81,16s-.07,0-.07,0L477,361a.06.06,0,0,1,.05-.06l74.23-15.67a.06.06,0,0,1,.07.06l.34,21.35a.07.07,0,0,1,0,.06l-49.19,10.38a.07.07,0,0,0,0,.06l.38,19.41s0,.05.06.05l42.27-8.92s.06,0,.06.05l.39,20.15a.07.07,0,0,1,0,.06l-42.46,9a.07.07,0,0,0,0,.06l.39,23s0,.05.07.05l50.86-10.74a.05.05,0,0,1,.07.05Z"/><path class="cls-2" d="M687.82,316.5,664.64,428.27a.06.06,0,0,1,0,.05l-24.41,5.15s0,0-.06,0l-12.55-48.77c-2.24-8.5-4.46-19.71-4.46-19.71l-.28.07s-1.11,11.75-2.7,21.21l-8.79,53.29a0,0,0,0,1,0,.05l-24.41,5.15a.06.06,0,0,1-.07,0L556.35,344.25a.06.06,0,0,1,0-.08l24.82-5.24a.08.08,0,0,1,.07.05l11.06,42.49c2.6,10.23,5.58,25.76,5.58,25.76l.29-.06s2.14-15.41,4-27l8-47.28a.07.07,0,0,1,0-.05l23-4.84a.05.05,0,0,1,.07,0l11,43.11c2.64,10.36,5.76,25.12,5.76,25.12l.29-.06s2.14-16.76,4.09-28.1l8-46.25a0,0,0,0,1,0,0l25.24-5.32S687.83,316.46,687.82,316.5Z"/><path class="cls-2" d="M753.15,411.27c-24.91,9-57.47,8.73-62.92-22,0,0,0-.07,0-.07l25-5.26a.06.06,0,0,1,.07,0c2,10.62,11,13,22.3,10.65,8.45-1.78,15.89-6.19,14.14-14.51-1.27-6-8-7.43-23.1-9.49-19.7-2.57-32.69-6.71-36.19-23.33-4.48-21.2,9.63-35.85,32.41-40.66,19.9-4.2,42-.79,46,23.15,0,0,0,.05,0,.06L746.61,335a.08.08,0,0,1-.07-.05c-1.57-8-8.38-11.19-18.52-9.05-6.45,1.35-13.64,5.57-12.27,12.77,1.3,6.15,7.19,6.4,24.7,8.55,18.1,2.28,31.7,6.8,35.72,22.6C780.62,387.33,770.14,405.16,753.15,411.27Z"/><path class="cls-5" d="M560.73,787.23s0,.06,0,.06l-145,30.61s-.07,0-.07,0L368.85,596.41a.06.06,0,0,1,0-.07l145-30.61a.07.07,0,0,1,.06,0Z"/><path class="cls-5" d="M724,752.76a.08.08,0,0,1,0,.07l-145,30.61s-.05,0-.06-.05L532.14,562s0-.07,0-.07l145-30.61a0,0,0,0,1,.06,0Z"/><path class="cls-5" d="M887.29,718.3a0,0,0,0,1,0,.06L742.22,749a0,0,0,0,1-.06,0L695.41,527.48a.06.06,0,0,1,0-.07l145-30.61s.06,0,.06,0Z"/><polygon class="cls-2" points="828.8 441.11 683.81 472.42 601.72 490.17 540.02 540.03 539.04 503.77 502.55 511.58 357.5 542.67 353.57 523.95 498.53 492.64 556.86 480.04 557.39 500.37 590.56 472.81 679.85 453.75 824.92 422.81 828.8 441.11"/></g></g></svg>